<?xml version="1.0" encoding="iso-8859-1"?>
<!-- Generator: Adobe Illustrator 19.0.0, SVG Export Plug-In . SVG Version: 6.00 Build 0)  -->
<svg version="1.1" id="Capa_1" xmlns="http://www.w3.org/2000/svg" xmlns:xlink="http://www.w3.org/1999/xlink" x="0px" y="0px"
	 viewBox="0 0 512 512" style="enable-background:new 0 0 512 512;" xml:space="preserve">
<g>
	<g>
		<path d="M509.824,247.936l-112-192C394.944,51.008,389.696,48,384,48H128c-5.696,0-10.944,3.008-13.824,7.936l-112,192
			C0.736,250.4,0,253.184,0,256v176c0,17.664,14.368,32,32,32h448c17.664,0,32-14.336,32-32V256
			C512,253.184,511.264,250.4,509.824,247.936z M400,240c-6.048,0-11.584,3.424-14.304,8.832L358.112,304H153.92l-27.584-55.168
			C123.616,243.424,118.08,240,112,240H43.84l93.344-160h237.632l93.344,160H400z"/>
	</g>
</g>
<g>
</g>
<g>
</g>
<g>
</g>
<g>
</g>
<g>
</g>
<g>
</g>
<g>
</g>
<g>
</g>
<g>
</g>
<g>
</g>
<g>
</g>
<g>
</g>
<g>
</g>
<g>
</g>
<g>
</g>
</svg>
